<svg xmlns="http://www.w3.org/2000/svg" viewBox="0 0 64 64" id="desktop-rocket"><path fill="#3f4a59" d="M62.71 56.55H52.24v-.68h6.78c1.18 0 2.15-.97 2.15-2.18v-35.5c0-1.19-.96-2.18-2.15-2.18H42.14c.04.13.07.25.1.38.05.21.1.41.14.62.13.55.24 1.08.32 1.61.03.14.05.29.07.43.03.19.06.38.08.57h14.39c.07 0 .13.06.13.13v32.41c0 .08-.06.13-.13.13H6.75c-.06 0-.11-.06-.11-.13V19.74c0-.07.05-.13.11-.13h14.4c.02-.19.05-.39.08-.58.02-.14.04-.28.07-.42.07-.52.18-1.05.31-1.61.04-.2.09-.41.14-.62.03-.13.06-.25.1-.38H4.97c-1.18 0-2.15.98-2.15 2.18v35.51c0 1.2.96 2.18 2.15 2.18h6.78v.68H1.27c-.7 0-1.27.58-1.27 1.3 0 3 2.41 5.45 5.38 5.45h53.24c1.44 0 2.79-.57 3.8-1.6a5.415 5.415 0 0 0 1.59-3.85 1.31 1.31 0 0 0-1.3-1.3zm-23.83 1.39-.5 1.18H26.05l-.5-1.18h13.33zm7.86-1.39H17.25v-.68h29.49v.68z"></path><path fill="#3f4a59" d="M45.91 45.58c.08 0 .15-.02.22-.05.17-.09.27-.26.27-.45V32.7c0-.17-.08-.32-.2-.41l-3.78-2.74c-.02.11-.05.21-.07.32-.05.24-.11.49-.17.73-.68 2.86-1.76 5.82-3.23 8.81-.05.13-.12.25-.18.38-.09.18-.18.35-.27.52l7.12 5.19c.09.05.19.08.29.08zM37.33 7.53C35.91 5.24 34.11 2.95 31.99.7c-2.15 2.29-3.9 4.52-5.33 6.82 1.58 1.11 3.41 1.69 5.33 1.69s3.75-.57 5.34-1.68zM21.8 30.59c-.06-.25-.12-.49-.17-.74-.02-.11-.05-.21-.06-.32l-3.79 2.76c-.13.09-.21.24-.21.41v12.37c0 .19.11.36.27.45.07.03.15.05.23.05.1 0 .2-.03.28-.09l7.12-5.19c-.09-.18-.18-.35-.26-.52-.07-.13-.13-.25-.19-.38v-.01c-1.47-2.97-2.54-5.93-3.22-8.79z"></path><path fill="#3177b0" d="M22.59 29.64c.67 3.13 1.85 6.39 3.5 9.69.01.02.02.05.03.07.49.97 1.01 1.97 1.63 3.01h8.5c.57-.95 1.1-1.97 1.66-3.08 1.65-3.31 2.82-6.56 3.5-9.68 0-.01.01-.03.01-.04.77-3.56.89-7.05.39-10.4v-.04c0-.02-.01-.05-.01-.07-.12-.78-.28-1.57-.48-2.4-.01-.02-.01-.05-.02-.07 0-.01-.01-.03-.01-.04-.69-2.77-1.85-5.53-3.45-8.21A10.29 10.29 0 0 1 32 10.2c-2.11 0-4.11-.63-5.84-1.83a30.257 30.257 0 0 0-3.45 8.23v.02c-.23.91-.4 1.75-.5 2.55-.52 3.37-.38 6.87.38 10.42-.01.02 0 .04 0 .05zm9.4-13.1c2.2 0 3.98 1.81 3.98 4.02 0 2.23-1.78 4.03-3.98 4.03-2.19 0-3.98-1.81-3.98-4.03.01-2.21 1.79-4.02 3.98-4.02zm10.86 35.18c.01-.11.02-.22.02-.33 0-.22-.03-.45-.08-.66 0-.01-.04-.13-.05-.15-.43-1.37-1.88-2.34-3.54-2.34-.16 0-.35-.09-.45-.23-.71-1.08-2.29-1.62-3.67-1.25-.14.04-.29.01-.41-.07a.534.534 0 0 1-.21-.35l-.42-3.5h-4.13l-.36 3.06c-.02.16-.11.3-.25.38-.14.07-.3.08-.44.01-.4-.18-.82-.28-1.25-.28-1.08 0-2.05.57-2.58 1.52-.09.15-.25.25-.43.25-1.65 0-3.07 1.15-3.41 2.75-.01.02-.01.04-.02.05a3.353 3.353 0 0 0-.04 1.13h21.72z"></path></svg>