<?xml version="1.0" encoding="utf-8"?>
<!-- Generator: Adobe Illustrator 24.1.2, SVG Export Plug-In . SVG Version: 6.00 Build 0)  -->
<svg version="1.1" id="Layer_1" xmlns="http://www.w3.org/2000/svg" xmlns:xlink="http://www.w3.org/1999/xlink" x="0px" y="0px"
	 viewBox="0 0 92.9 136.8" style="enable-background:new 0 0 92.9 136.8;" xml:space="preserve">
<style type="text/css">
	.st0{fill:#62AB46;}
	.st1{fill:#020B0A;}
</style>
<path class="st0" d="M30.3,114.1h32.3c2.8,0,5,2.3,5,5.1v0c0,2.8-2.3,5.1-5,5.1H30.3c-2.8,0-5-2.3-5-5.1v0
	C25.2,116.3,27.5,114.1,30.3,114.1z"/>
<path class="st0" d="M35.6,128.2h21.7c2.4,0,4.3,1.9,4.3,4.3v0c0,2.4-1.9,4.3-4.3,4.3H35.6c-2.4,0-4.3-1.9-4.3-4.3v0
	C31.3,130.1,33.2,128.2,35.6,128.2z"/>
<path class="st1" d="M46.4,107.8c-0.6,0-1-0.4-1-1V74.4c0-0.5,0.4-1,1-1s1,0.4,1,1v32.4C47.4,107.4,47,107.8,46.4,107.8z"/>
<path class="st1" d="M46.4,75.2c-9.3,0-16.8-7.5-16.8-16.8c0-0.6,0.4-1,1-1s1,0.4,1,1c0,8.2,6.6,14.8,14.8,14.8
	c8.2,0,14.8-6.6,14.8-14.8c0-0.6,0.4-1,1-1s1,0.4,1,1C63.2,67.6,55.7,75.1,46.4,75.2z"/>
<path class="st1" d="M58,108.1H34.9c-3.2,0-5.9-2.3-6.5-5.4c-1.6-7.7-5.5-14.8-11.2-20.1c-0.8-0.7-1.5-1.4-2.3-2
	C5.4,71.7,0,59.4,0,46.5C0,20.8,20.8,0,46.4,0c0.6,0,1.2,0,1.9,0c23.6,0.9,42.8,19.4,44.5,43l0,0c1.1,14.1-4.3,27.9-14.7,37.5
	c-0.8,0.6-1.5,1.3-2.3,2c-5.7,5.4-9.7,12.4-11.2,20.1C64,105.8,61.2,108.1,58,108.1z M46.5,2C21.9,2,2,21.9,2,46.5
	C2,58.8,7.2,70.6,16.2,79c0.7,0.6,1.5,1.3,2.3,2c6,5.7,10.2,13.1,11.8,21.2c0.4,2.2,2.3,3.8,4.6,3.8H58c2.2,0,4.2-1.6,4.6-3.8
	c1.7-8.1,5.8-15.5,11.8-21.1c0.8-0.8,1.6-1.4,2.4-2.1c9.9-9.2,15-22.4,14-35.9C89.2,20.9,70.5,2.9,48.2,2C47.6,2,47.1,2,46.5,2z"/>
</svg>
