<svg id="Layer_1" data-name="Layer 1" xmlns="http://www.w3.org/2000/svg" viewBox="0 0 111.46 111.46"><defs><style>.cls-1{fill:#020b0a;}.cls-2{fill:#df4b8d;}</style></defs><path class="cls-1" d="M55.73,111.46a55.73,55.73,0,1,1,55.73-55.73A55.79,55.79,0,0,1,55.73,111.46ZM55.73,2a53.73,53.73,0,1,0,53.73,53.73A53.79,53.79,0,0,0,55.73,2Z"/><path class="cls-2" d="M53.78,77.34a3.48,3.48,0,0,1-2.59-1.16L32.41,55.41a3.5,3.5,0,1,1,5.19-4.69L53.38,68.17,76.5,33.87a3.5,3.5,0,0,1,5.81,3.92l-25.62,38A3.56,3.56,0,0,1,54,77.33Z"/></svg>