<svg id="Layer_1" data-name="Layer 1" xmlns="http://www.w3.org/2000/svg" viewBox="0 0 155.88 90.82"><defs><style>.cls-1{fill:#020b0a;}.cls-2{fill:#6183da;}</style></defs><path class="cls-1" d="M77.94,90.82A90.21,90.21,0,0,1,.13,45.92a1.06,1.06,0,0,1,0-1,89.85,89.85,0,0,1,155.61,0,1,1,0,0,1,0,1A90.18,90.18,0,0,1,77.94,90.82ZM2.16,45.42a88.18,88.18,0,0,0,75.78,43.4,88.19,88.19,0,0,0,75.78-43.4,87.84,87.84,0,0,0-151.56,0Z"/><path class="cls-1" d="M77.94,75.32a29.39,29.39,0,1,1,29.39-29.39A29.42,29.42,0,0,1,77.94,75.32Zm0-56.78a27.39,27.39,0,1,0,27.39,27.39A27.42,27.42,0,0,0,77.94,18.54Z"/><circle class="cls-2" cx="77.94" cy="45.93" r="10"/></svg>