<svg xmlns="http://www.w3.org/2000/svg" viewBox="0 0 48 48" id="homepage"><path fill="#424242" d="M42 30H32a1 1 0 0 1 0-2h10a1 1 0 0 1 0 2zm0-8H27a1 1 0 0 1 0-2h15a1 1 0 0 1 0 2zm0 4H27a1 1 0 0 1 0-2h15a1 1 0 0 1 0 2zm0-12H27a1 1 0 0 1 0-2h15a1 1 0 0 1 0 2zm0 4H27a1 1 0 0 1 0-2h15a1 1 0 0 1 0 2z"></path><path fill="#42a5f5" d="m33.66 36.25-9-8a1 1 0 0 0-1.32 0l-9 8a1 1 0 0 0 1.32 1.5l.34-.3V47a1 1 0 0 0 1 1h14a1 1 0 0 0 1-1v-9.55l.34.3a1 1 0 0 0 1.32-1.5ZM30 36v10h-4v-5h-4v5h-4c0-10.92 0-10-.06-10.28L24 30.34c6.94 6.16 6 5.19 6 5.66Z"></path><path fill="#424242" d="M46 8H2V3a1 1 0 0 1 1-1h42a1 1 0 0 1 1 1Zm-1-8H3a3 3 0 0 0-3 3v36a3 3 0 0 0 3 3h11v-2H3a1 1 0 0 1-1-1V10h44v29a1 1 0 0 1-1 1H34v2h11a3 3 0 0 0 3-3V3a3 3 0 0 0-3-3Z"></path><path fill="#42a5f5" d="M6 5a1 1 0 0 1-2 0 1 1 0 0 1 2 0zm4 0a1 1 0 0 1-2 0 1 1 0 0 1 2 0zm4 0a1 1 0 0 1-2 0 1 1 0 0 1 2 0zm8 17v-2l-2.26-.75a6.68 6.68 0 0 0-.44-1.07l1.06-2.13L19 14.64l-2.18 1.06a6.68 6.68 0 0 0-1.07-.44L15 13h-2l-.75 2.26a6.68 6.68 0 0 0-1.07.44l-2.13-1.06-1.41 1.41 1.06 2.13a6.68 6.68 0 0 0-.44 1.07L6 20v2l2.26.75a6.68 6.68 0 0 0 .44 1.07L7.64 26l1.41 1.41 2.13-1.06a6.68 6.68 0 0 0 1.07.44L13 29h2l.75-2.26a6.68 6.68 0 0 0 1.07-.44L19 27.36 20.36 26l-1.06-2.18a6.68 6.68 0 0 0 .44-1.07zm-8 1a2 2 0 1 1 2-2 2 2 0 0 1-2 2z"></path></svg>